# xmcd
#
# Track frame offsets:
#	150
#	16064
#	44593
#	60076
#	74126
#	86095
#	108137
#	134924
#	166121
#	177681
#	198343
#	226240
#	271771
#	291707
#
# Disc length: 4137 seconds
#
# Revision: 1
# Processed by: cddbd v1.5.2PL0 Copyright (c) Steve Scherf et al.
# Submitted via: EasyCDDAExtractor 8.2.3.1
#
DISCID=ce10270e
DTITLE=James Talley - Journey - Live
DYEAR=2004
DGENRE=Country
TTITLE0=W. Lee O'daniel And The Light Crust Dough Boys
TTITLE1=Bluesman
TTITLE2=My Cherokee Maiden
TTITLE3=That Old Magic
TTITLE4=Tryin' Like The Devil
TTITLE5=Sometimes I Think About Suzanne
TTITLE6=Rosa Montaña
TTITLE7=Song Of Chief Joseph
TTITLE8=Richland, Washington
TTITLE9=Somewhere On The Edge Of The World
TTITLE10=When I Need Some Love
TTITLE11=I Saw The Buildings
TTITLE12=Up From Georgia
TTITLE13=We're All One Family
EXTD=Registrato Live a Sarzanna, Gallarate e Chiari, Italia\nRecorded by Jono 
EXTD=Manson - Executive Producers: Jono Manson and Simone Grassi
EXTT0=
EXTT1=
EXTT2=inedito
EXTT3=inedito
EXTT4=
EXTT5=
EXTT6=
EXTT7=inedito
EXTT8=
EXTT9=inedito
EXTT10=
EXTT11=inedito
EXTT12=
EXTT13=
PLAYORDER=
